<?xml version="1.0" encoding="UTF-8" standalone="no" ?>
<!DOCTYPE svg PUBLIC "-//W3C//DTD SVG 1.1//EN" "http://www.w3.org/Graphics/SVG/1.1/DTD/svg11.dtd">
<svg xmlns="http://www.w3.org/2000/svg" xmlns:xlink="http://www.w3.org/1999/xlink" version="1.1" width="1080" height="1080" viewBox="0 0 1080 1080" xml:space="preserve">
<desc>Created with Fabric.js 5.2.4</desc>
<defs>
</defs>
<g transform="matrix(1 0 0 1 540 540)" id="3f992b05-8639-4ff6-93c5-1362f1a18042"  >
<rect style="stroke: none; stroke-width: 1; stroke-dasharray: none; stroke-linecap: butt; stroke-dashoffset: 0; stroke-linejoin: miter; stroke-miterlimit: 4; fill: rgb(255,255,255); fill-rule: nonzero; opacity: 1; visibility: hidden;" vector-effect="non-scaling-stroke"  x="-540" y="-540" rx="0" ry="0" width="1080" height="1080" />
</g>
<g transform="matrix(1 0 0 1 540 540)" id="d081b62d-9063-40ed-89e3-538999591c04"  >
</g>
<g transform="matrix(2.01 0 0 2.01 554.54 536.03)" id="path1"  >
<path style="stroke: rgb(229,229,230); stroke-width: 0; stroke-dasharray: none; stroke-linecap: butt; stroke-dashoffset: 0; stroke-linejoin: miter; stroke-miterlimit: 4; fill: rgb(229,229,230); fill-rule: nonzero; opacity: 1;" vector-effect="non-scaling-stroke"  transform=" translate(-189, -294.4)" d="M 194 36.806641 L 194 445.41211 L 244 395.41211 L 244 86.806641 L 194 36.806641 z M 184.22461 39.744141 L 131.70703 92.261719 L 184.23047 92.261719 L 184.22461 39.744141 z M 134 112 L 134 394.94336 L 184 444.94336 L 184 112 L 134 112 z M 117.08008 112.00977 L 24.009766 212.84961 L 117.08008 313.67969 L 117.08008 239.90039 L 92.705078 213.50977 L 117.08008 187.11914 L 117.08008 112.00977 z M 265.71484 117.14648 L 265.71484 185.17578 L 310.82422 230.28516 L 378.85352 230.28516 L 265.71484 117.14648 z M 264 252.00977 L 264 336.58984 L 280.4043 354.34961 L 264 372.10938 L 264 453.67969 L 357.07031 352.83984 L 264 252.00977 z M -0.85351562 338.71484 L 112.28516 451.85352 L 112.28516 385.96484 L 65.035156 338.71484 L -0.85351562 338.71484 z M 134 450.86328 L 134 492 L 24 492 L 24 552 L 354 552 L 354 492 L 244 492 L 244 450.86328 L 194 450.86328 L 194 492 L 184 492 L 184 450.86328 L 134 450.86328 z" stroke-linecap="round" />
</g>
<g transform="matrix(NaN NaN NaN NaN 0 0)"  >
<g style=""   >
</g>
</g>
<g transform="matrix(NaN NaN NaN NaN 0 0)"  >
<g style=""   >
</g>
</g>
</svg>