<?xml version="1.0" encoding="UTF-8" standalone="no" ?>
<!DOCTYPE svg PUBLIC "-//W3C//DTD SVG 1.1//EN" "http://www.w3.org/Graphics/SVG/1.1/DTD/svg11.dtd">
<svg xmlns="http://www.w3.org/2000/svg" xmlns:xlink="http://www.w3.org/1999/xlink" version="1.1" width="1080" height="1080" viewBox="0 0 1080 1080" xml:space="preserve">
<desc>Created with Fabric.js 5.2.4</desc>
<defs>
</defs>
<rect x="0" y="0" width="100%" height="100%" fill="transparent"></rect>
<g transform="matrix(1 0 0 1 540 540)" id="bbddff23-669c-4874-9c81-ebf5bc92ea9e"  >
<rect style="stroke: none; stroke-width: 1; stroke-dasharray: none; stroke-linecap: butt; stroke-dashoffset: 0; stroke-linejoin: miter; stroke-miterlimit: 4; fill: rgb(255,255,255); fill-rule: nonzero; opacity: 1; visibility: hidden;" vector-effect="non-scaling-stroke"  x="-540" y="-540" rx="0" ry="0" width="1080" height="1080" />
</g>
<g transform="matrix(1 0 0 1 540 540)" id="65a1fbe3-af4c-4bac-9962-a111b9def9ef"  >
</g>
<g transform="matrix(2 0 0 2 536.37 554.03)" id="0c0aa462-e46b-4235-b159-27105e98c25c"  >
<path style="stroke: rgb(229,229,230); stroke-width: 0; stroke-dasharray: none; stroke-linecap: butt; stroke-dashoffset: 0; stroke-linejoin: miter; stroke-miterlimit: 4; fill: rgb(229,229,230); fill-rule: nonzero; opacity: 1;" vector-effect="non-scaling-stroke"  transform=" translate(-256, -256)" d="M 170.663 256.157 C 170.58 209.03599999999997 208.71800000000002 170.75699999999998 255.83 170.67499999999998 C 302.951 170.58299999999997 341.237 208.70399999999998 341.329 255.834 C 341.42 302.964 303.28200000000004 341.23400000000004 256.153 341.326 C 209.04100000000003 341.416 170.75400000000002 303.28700000000003 170.663 256.15700000000004 z M 124.555 256.24899999999997 C 124.69600000000001 328.851 183.661 387.57599999999996 256.245 387.43399999999997 C 328.837 387.294 387.595 328.34499999999997 387.454 255.74299999999997 C 387.313 183.16599999999997 328.34000000000003 124.40699999999995 255.739 124.54899999999998 C 183.154 124.68999999999998 124.41400000000002 183.66299999999998 124.555 256.24899999999997 z M 361.659 119.15699999999995 C 361.692 136.11099999999996 375.476 149.83899999999994 392.431 149.80599999999995 C 409.392 149.77199999999996 423.12 135.99499999999995 423.09499999999997 119.04099999999995 C 423.06199999999995 102.08699999999996 409.277 88.35099999999996 392.31499999999994 88.38499999999996 C 375.35299999999995 88.41799999999996 361.6259999999999 102.20299999999996 361.65899999999993 119.15699999999995 z M 152.963 464.5569999999999 C 128.005 463.4709999999999 114.452 459.3229999999999 105.41999999999999 455.8479999999999 C 93.45899999999999 451.2199999999999 84.92399999999999 445.6709999999999 75.94099999999999 436.7549999999999 C 66.975 427.80399999999986 61.40899999999999 419.29399999999987 56.73899999999999 407.3579999999999 C 53.23099999999999 398.3249999999999 49.008999999999986 384.7889999999999 47.83899999999999 359.8309999999999 C 46.56999999999999 332.8479999999999 46.279999999999994 324.75299999999993 46.15599999999999 256.3979999999999 C 46.02299999999999 188.05999999999992 46.27199999999999 179.9639999999999 47.44999999999999 152.9569999999999 C 48.51899999999999 128.0159999999999 52.691999999999986 114.44499999999991 56.15899999999999 105.4209999999999 C 60.78699999999999 93.4439999999999 66.32 84.92499999999991 75.25299999999999 75.9429999999999 C 84.20199999999998 66.9599999999999 92.71199999999999 61.4109999999999 104.65599999999998 56.7409999999999 C 113.68099999999998 53.214999999999904 127.21699999999998 49.0259999999999 152.16699999999997 47.8409999999999 C 179.16499999999996 46.5629999999999 187.25199999999998 46.2899999999999 255.58999999999997 46.156999999999904 C 323.943 46.0239999999999 332.03799999999995 46.2649999999999 359.046 47.4509999999999 C 383.986 48.5369999999999 397.556 52.6679999999999 406.573 56.1599999999999 C 418.541 60.7879999999999 427.07599999999996 66.3049999999999 436.051 75.2539999999999 C 445.025 84.20399999999991 450.591 92.6969999999999 455.26099999999997 104.6669999999999 C 458.78499999999997 113.6659999999999 462.97499999999997 127.21899999999991 464.15299999999996 152.1609999999999 C 465.438 179.15899999999988 465.729 187.25499999999988 465.85299999999995 255.5929999999999 C 465.98499999999996 323.9479999999999 465.73599999999993 332.04399999999987 464.55099999999993 359.0349999999999 C 463.46399999999994 383.9919999999999 459.32499999999993 397.5549999999999 455.8419999999999 406.5949999999999 C 451.2129999999999 418.5479999999999 445.6809999999999 427.0829999999999 436.7389999999999 436.0659999999999 C 427.79799999999994 445.01499999999993 419.2879999999999 450.5969999999999 407.3359999999999 455.26699999999994 C 398.3269999999999 458.78399999999993 384.7749999999999 462.98099999999994 359.84199999999987 464.1669999999999 C 332.8439999999999 465.4359999999999 324.75599999999986 465.7269999999999 256.3939999999999 465.85099999999994 C 188.0559999999999 465.9839999999999 179.96999999999989 465.7269999999999 152.9629999999999 464.55699999999996 z M 149.977 1.773 C 122.738 3.059 104.134 7.420999999999999 87.876 13.792 C 71.047 20.353 56.781000000000006 29.145 42.59 43.395 C 28.381 57.653 19.655 71.944 13.144 88.79 C 6.841 105.089 2.569000000000001 123.702 1.3659999999999997 150.958 C 0.172 178.264 -0.102 186.973 0.031 256.489 C 0.164 325.99699999999996 0.47 334.72299999999996 1.772 362.037 C 3.074 389.268 7.421 407.864 13.791 424.12899999999996 C 20.36 440.95899999999995 29.144 455.21799999999996 43.402 469.41799999999995 C 57.652 483.61799999999994 71.952 492.33599999999996 88.80600000000001 498.85599999999994 C 105.08800000000001 505.1499999999999 123.70800000000001 509.43899999999996 150.95600000000002 510.6329999999999 C 178.26100000000002 511.8359999999999 186.978 512.1009999999999 256.47700000000003 511.96899999999994 C 326.009 511.83599999999996 334.72700000000003 511.52899999999994 362.03200000000004 510.23499999999996 C 389.271 508.93299999999994 407.85800000000006 504.57099999999997 424.13200000000006 498.21599999999995 C 440.96100000000007 491.631 455.2270000000001 482.86299999999994 469.4200000000001 468.60499999999996 C 483.61100000000005 454.354 492.3370000000001 440.05499999999995 498.84800000000007 423.20099999999996 C 505.15200000000004 406.919 509.44000000000005 388.29699999999997 510.62500000000006 361.06699999999995 C 511.82000000000005 333.74399999999997 512.1030000000001 325.018 511.96900000000005 255.50999999999993 C 511.83600000000007 185.99399999999991 511.52200000000005 177.28499999999994 510.22800000000007 149.98799999999994 C 508.9340000000001 122.73199999999994 504.5710000000001 104.14399999999995 498.20900000000006 87.86999999999995 C 491.63200000000006 71.04099999999994 482.8570000000001 56.78999999999995 468.6070000000001 42.58199999999995 C 454.3570000000001 28.38999999999995 440.0570000000001 19.646999999999952 423.2030000000001 13.152999999999953 C 406.91300000000007 6.848999999999952 388.30000000000007 2.552999999999953 361.0530000000001 1.374999999999952 C 333.747 0.164 325.03 -0.101 255.506 0.031 C 185.999 0.164 177.28199999999998 0.46199999999999997 149.977 1.773 z" stroke-linecap="round" />
</g>
<g transform="matrix(NaN NaN NaN NaN 0 0)"  >
<g style=""   >
</g>
</g>
<g transform="matrix(NaN NaN NaN NaN 0 0)"  >
<g style=""   >
</g>
</g>
</svg>